<svg xmlns="http://www.w3.org/2000/svg" viewBox="0 0 1918.7 1061.7">
  <path fill="#fa6542" d="M824.7 0c3.6 16.3 12.1 29.8 23.9 41.3 17.1 16.6 37.8 25.1 61.7 25.1 35 0 69.9.3 104.9-.4 35-.8 70.4-30.4 78.5-64.4.1-.5 0-1 .1-1.5h14c-3.8 12.8-8.7 25.2-16.6 36.2-15.7 21.8-36.8 35.3-62.8 41.5-7 1.7-14.1 1.7-21.2 1.7-37-.3-74 1.2-110.9-.8-14-.7-26.7-6.4-38.7-13.4-19.1-11.1-32.2-27.8-41.2-47.5-2.5-5.5-5.1-11.3-5.5-17.6 4.5-.2 9.1-.2 13.8-.2z"/>
  <path fill="#f43a5f" d="M1918.7 31c-17.1 1.2-32-4.7-45.6-14.3-6.4-4.5-13.1-8.9-16.4-16.7h17c12.5 12.2 27.4 18.6 45 18v13z"/>
  <path fill="#31ce8b" d="M1917.9 486.9c0 5.7-.1 11.4-.1 17.1-3.6 52.6-48.4 96.6-101 99.2-3 .1-6 .2-9 .2h-259.4c-3 0-6.3.7-8.8-2.2-3.2-3.9-1.7-9.2 3.3-10.3 2.2-.5 4.6-.5 6.9-.5 85.8 0 171.6-.1 257.4 0 12.8 0 25.2-1.6 37.1-6.4 25-10.2 42.9-27.8 53.4-52.7 5.6-13.3 8-27.3 7.2-41.6-1.8-31.6-15.3-57-41.2-75.3-14.3-10.1-30.4-15.9-48.1-16.6-2.2-.1-4.4-.1-6.5-.6-3.5-.8-5.6-3-5.2-6.7.4-3.7 2.7-5.4 6.4-5.5 26.9-.4 50.1 8.8 70.3 26.4 20.8 18.1 32.7 41 36.7 68.1.3 2.4.4 4.9.6 7.4zM1743.8 672.4c31.7 0 63.3-.1 95 0 38.1.2 66.8 27.3 68.2 65.3 1 27.1-10.9 48.3-34.7 61.4-23.5 13-47 11.1-69.4-3.7-16.5-10.9-25-26.6-28.2-45.8-.6-3.3-.9-6.5-1-9.8-.1-3.4 2-5.2 4.9-5.8 3.4-.7 6.8-.1 8.2 3.8.6 1.7.7 3.6.8 5.4 1.6 29.1 25.6 51.6 54.3 51 29.1-.7 51.8-24 52.3-53.6.4-29.4-21.9-53.8-50.9-54.8-17-.6-34-.2-51-.2h-147.5c-2.2 0-4.3-.1-6.5-.4-3.5-.4-5.3-3-5.4-6-.1-3.3 1.9-5.9 5.5-6.5 1.8-.3 3.6-.3 5.5-.3h99.9z"/>
  <path fill="#f43a5f" d="M1620.5 309.6c-1.3-16 2.2-29.8 11.5-41.8 10.4-13.5 24.3-20.7 41.3-21.9 17.1-1.1 32.1 3.7 44.6 15.4 10.4 9.9 16.4 22.1 17.9 36.6 1.2 11.1-.9 22.3 1.9 33.2 4.3 16.7 14.9 27.9 31.5 32.5 16.2 4.5 30.9.6 43.4-11 10.2-9.4 14.4-21.3 14.7-34.8.1-5.8 0-11.7 0-17.5 0-4.1 1.8-7 6-6.8 3.8.2 7 2 6.8 6.8-.4 13.9 1.4 27.8-4.2 41.3-5.6 13.5-14.8 23.4-27.4 30.3-13.2 7.3-27.5 8.4-41.7 4.6-17.5-4.7-30.4-15.7-38.6-32.2-5.9-11.8-4.7-24.4-4.8-36.8 0-8-1.1-15.8-4.7-22.9-8.9-17.8-26.7-27.7-45.4-25.7-21.4 2.3-35.3 16.6-39.4 35.5-2 9.3-1 18.9-.8 28.4.1 4.1-1.6 6.4-5.3 7.6-3.7 1.1-7.1-.9-7.3-4.8-.2-5.6 0-11.2 0-16z"/>
  <path fill="#fa6542" d="M1916.1 243.8v86c0 6-2.5 8.8-7.2 8.5-3-.2-5-1.6-5.3-4.8-.2-2-.3-4-.3-6v-158c0-12.8-2-25.2-10-35.8-9-11.8-20.3-19.2-35.4-22.1-26.4-5.1-55 12.8-60.8 41.8-2 10.1-1 20.6-1 30.9 0 2 .1 4-.1 6-.4 4.3-3.9 6.2-7.2 6.3-3.3.2-5.4-2.8-5.4-6.4v-28c-.1-20.1 8.1-36.6 23.1-49.3 14.8-12.5 32.6-17.3 51.8-14.7 21.5 2.9 38 14.1 49.1 32.8 6.4 10.8 8.8 22.8 8.7 35.3-.1 25.8 0 51.7 0 77.5zM1795.7 458.6h49.1c4.1 0 7.4 1 8.1 5.6.7 4.2-2.3 7.2-7.4 7.2-12.2.1-24.3-.1-36.5.1-18.3.2-36.7-.9-55 .6-29.1 2.3-52.8 15.4-71.2 37.7-14.4 17.5-22.5 37.9-23.4 60.8-.1 1.8-.2 3.7-.4 5.5-.4 3.9-2.4 6.2-6.4 6.3-3.8.1-6.8-2.9-7-6.9-.4-9.4 1.2-18.7 3.4-27.7 2.9-12 7.8-23.4 14.6-34 19.3-30.1 46.2-48.6 81.7-53.8 17.8-2.7 35.7-.8 50.4-1.4z"/>
  <path fill="#31ce8b" d="M1848.9 933.3c-15.6.6-30.1-6.4-41.9-18-9.9-9.8-16.8-22-18.2-36.5-.3-2.8-1.4-5.4-1.2-8.3.3-4 1.4-7.1 6-7.4 5-.3 7.5 1.6 7.7 6.9.4 11.2 3.7 21.2 10.4 30.2 12.8 17.1 34.7 24.3 55.2 18.1 20.2-6.1 34.8-24.6 36-45.7 0-.8 0-1.7.1-2.5.5-4.8 3.3-7.7 7-7.5 3.9.2 6.3 3.4 6.2 8.2-.8 35-30.8 63.6-67.3 62.5z"/>
  <g>
    <path fill="#16cdee" d="M134.6 1061.6c-22.1-.5-49.1 1-76-.9-11.6-.7-21.6-5.7-30.8-12.2-14.5-10.3-23.4-24.8-26.4-41.9-2.9-16.6-1.2-33.2 7.9-48.3 14.1-23.3 35-33.8 61.7-33.8 5.9 0 8.8 2.2 8.8 6.4 0 4.3-4.1 7.2-9.6 7-29.7-1.4-55.2 21.8-56.6 51.3-1.5 31.6 21.2 58.1 51.7 58.7 38.1.8 76.3.3 114.5.3 11.5 0 23 .1 34.5-.2 16.7-.5 29.3-8.6 40-21.1 9.2-10.7 13.1-22.7 12.6-36.3-.8-21.2-12.2-35.9-29.6-46.7-8.9-5.5-18.9-6.3-29-6.5-5-.1-8.7-2.9-8.6-6.8.1-3.7 3.1-6.1 8-6.3 36.4-1.7 65.9 24.5 71.2 56.4 5.9 35.3-15.2 68.9-49.7 78.2-8 2.2-16.1 2.2-24.1 2.3-21.9.6-43.8.4-70.5.4z"/>
    <path fill="#31ce8b" d="M147.3 876v101c0 3.7.1 7.4-3.8 9.6-3.9 2.3-8 .7-8.9-3.8-.5-2.4-.5-5-.5-7.4v-192c0-12.4-2.4-24.2-9.2-34.6-9.9-15-23.6-24-41.7-27-19.9-3.3-36.9 2.2-51 15.7-12.2 11.6-18 26.4-17.9 43.7.3 28.7 22.9 52.9 49.4 57 3.1.5 6.2.7 9.4.8 4.3.2 8.1 3.4 7.6 6.9-.6 4.3-3.3 6.2-7.6 6.1-23.3-.5-42.1-9.6-56.7-28C3.7 808.1 0 790.3 1.8 770.8c1.3-14.6 7.5-27.1 17-38.2 16.3-19 37.1-26.3 61.4-24.6 32.7 2.3 59.8 26.6 65.7 58.7 1.2 6.6 1.5 13.2 1.5 19.9 0 29.8-.1 59.6-.1 89.4z"/>
    <path fill="#fa6542" d="M129.1 492.7c0 36.5-.3 73 .1 109.5.3 30-19.1 55.8-47.2 63-20.5 5.2-39.6 2.1-56.9-11.2-12.3-9.6-20.3-22-22.8-36.7-3.7-21.3.8-41.1 16.9-57.3 11.7-11.9 26.1-17.2 42.3-18.7.3 0 .7 0 1-.1 5.2-.2 9.1 2.4 9.2 6.2.1 3.8-4.1 7.6-8.9 7.5-14.4-.2-25.8 5.8-35.5 15.9-20.7 21.5-15.7 59.5 9.6 75.3 23.3 14.5 50.3 9.8 68.1-10.9 8.9-10.3 11.3-23.3 11.3-36.7-.1-73.5 0-146.9 0-220.4 0-1.8 0-3.7.1-5.5.2-3.3 1.5-5.6 5.4-5.6 3.9-.1 6.4 1.4 7.1 5.3.3 1.6.2 3.3.2 5v115.4z"/>
    <path fill="#31ce8b" d="M180.3 305.3c-37.7.4-68.5-34.4-67.2-71.9 1.4-39.7 36.9-68.4 72-66.7 38.9 1.9 68.4 33.4 66.8 72-1.5 38.6-33.3 68.1-71.6 66.6zm58.7-68.9c.3-31.2-24.4-56.3-55.7-56.7-31.3-.4-56.7 24.5-56.9 56-.3 31.2 24.4 56.3 55.7 56.7 31.3.3 56.7-24.6 56.9-56zM391.3 427.9c-.5 11.5 1.2 25.4-2.5 38.9-4.3 15.8-13.1 28.5-27 37.3-20.6 13.1-42.6 14.4-63.9 3.6-22.9-11.7-34.4-31.5-34.7-57.8-.4-32 25.3-58.5 54.3-62.7 3.3-.5 6.7-.1 10-.3 3.9-.2 5.6 2.4 6 5.4.4 3.1-1.2 5.9-4.7 6.6-5.9 1.3-12 1.4-17.9 3.3-20.4 6.5-34.6 27-34.7 47.7-.1 24.7 16.9 45.9 41.2 50.7 14.4 2.8 27.9-.6 40-9.7 14.1-10.6 20.2-24.9 20.6-42 .3-17 .1-34 .1-51 0-1.7 0-3.3.2-5 .3-3.7 1.6-6.2 6.1-6.1 4.4.1 6.5 2.4 6.8 6.3.3 4.3.2 8.7.2 13-.1 6.6-.1 13.1-.1 21.8zM36.7 396.5v-89.9c0-6.3 1.2-7.5 6.4-7.6 4.8-.1 6.4 3 6.6 7 .2 5.2.1 10.3.1 15.5v164.3c0 4-.2 7.6-4.8 9.3-4 1.4-7.2 0-8-4.2-.3-1.6-.2-3.3-.2-5-.1-29.8-.1-59.6-.1-89.4z"/>
    <path fill="#16cdee" d="M184.9 89.8h-4.1c-80.1 0-145 64.9-145 145v.1c0 3.3 2.7 6 6 6h1.1c3.3 0 5.9-2.7 5.9-5.9v-.1c0-72.9 59.1-132 132-132h2.7c71.6 0 131.3 56.5 133.4 128.2C319 305.6 259 366.9 185 366.9c-3.7 0-6.7 3-6.7 6.7 0 3.5 2.8 6.3 6.3 6.3h.5c80.1 0 145-64.9 145-145-.2-80.2-65.1-145.1-145.2-145.1z"/>
  </g>
</svg>