<svg xmlns="http://www.w3.org/2000/svg" viewBox="128 -192 512 512">
  <path fill="#667eea" d="M192 272V144h-16v128c0 17.7 14.3 32 32 32h184v-16H208c-8.8 0-16-7.2-16-16zM208-112h16v16h-16v-16zM240-112h16v16h-16v-16zM272-112h16v16h-16v-16zM616-32H480c-4.4 0-8 3.6-8 8V88c0 4.4 3.6 8 8 8h24v16c0 4.4 3.6 8 8 8 1.7 0 3.4-.6 4.8-1.6L546.7 96H576v48h16V96h24c4.4 0 8-3.6 8-8V-24c0-4.4-3.6-8-8-8zm-8 112h-64c-1.7 0-3.4.6-4.8 1.6L520 96v-8c0-4.4-3.6-8-8-8h-24v-96h120v96z"/>
  <path fill="#667eea" d="M523.8 62.8c2.4 1.5 5.3 1.6 7.8.4l48-24c4-2 5.6-6.8 3.6-10.7-.8-1.6-2-2.8-3.6-3.6l-48-24c-4-2-8.8-.4-10.7 3.6-.6 1-.9 2.3-.9 3.5v48c0 2.8 1.4 5.4 3.8 6.8zM536 20.9L558.1 32 536 43.1V20.9zM259.2 150.4c1.4 1 3.1 1.6 4.8 1.6 4.4 0 8-3.6 8-8v-16h24c4.4 0 8-3.6 8-8V24c0-4.4-3.6-8-8-8H192v-80h384v16h16v-64c0-17.7-14.3-32-32-32H208c-17.7 0-32 14.3-32 32V16h-24c-4.4 0-8 3.6-8 8v96c0 4.4 3.6 8 8 8h77.3l29.9 22.4zM208-128h352c8.8 0 16 7.2 16 16v32H192v-32c0-8.8 7.2-16 16-16zM160 32h128v80h-24c-4.4 0-8 3.6-8 8v8l-19.2-14.4c-1.4-1-3.1-1.6-4.8-1.6h-72V32z"/>
  <path fill="#667eea" d="M256 48h16v16h-16V48zM176 48h64v16h-64V48zM176 80h96v16h-96V80zM440 256h16v16h-16v-16zM472 256h16v16h-16v-16z"/>
  <path fill="#667eea" d="M616 160H416c-4.4 0-8 3.6-8 8v128c0 4.4 3.6 8 8 8h200c4.4 0 8-3.6 8-8V168c0-4.4-3.6-8-8-8zm-192 16h184v48H424v-48zm184 112H424v-48h184v48z"/>
  <path fill="#667eea" d="M440 192h16v16h-16v-16zM472 192h16v16h-16v-16zM332.4 172.7c-1.3 2.9-.8 6.3 1.4 8.6 14.8 16.4 13.4 41.7-3 56.5s-41.7 13.4-56.5-3c-13.7-15.2-13.7-38.3 0-53.5 3-3.3 2.7-8.3-.6-11.3-1.5-1.3-3.4-2-5.3-2H232v-24h-16v32c0 4.4 3.6 8 8 8h29.4c-13.3 27.9-1.5 61.2 26.4 74.5 5.6 2.7 11.6 4.4 17.7 5.1 2.1.2 4.3.4 6.4.4 30.9.1 56-25 56.1-55.9v-.1c0-8.3-1.9-16.5-5.4-24H392v-16h-52.3c-3.2 0-6 1.9-7.3 4.7zM432 109.7V144h16V97.5c0-4.4-3.6-8-8-8-1.4 0-2.8.4-4 1.1-8.1 4.7-17.6 6.4-26.8 4.8-17.4-3.2-30.8-17.3-32.9-34.9-2.5-21.9 13.2-41.7 35.1-44.3 8.6-1 17.2.8 24.7 5.1 3.8 2.2 8.7.9 10.9-2.9.7-1.2 1.1-2.6 1.1-4V-32c0-4.4-3.6-8-8-8H272c-23.7 0-44.9 15-52.8 37.3l15.1 5.3C240-13.3 255.1-24 272-24h160V2.4c-29.6-8.8-60.8 8-69.7 37.7-2.2 7.2-2.8 14.8-2 22.3 3.5 30.7 31.3 52.8 62 49.3 3.3-.4 6.5-1.1 9.7-2zM272-176h200v16H272v-16zM488-176h16v16h-16v-16z"/>
</svg>