<svg xmlns="http://www.w3.org/2000/svg" viewBox="0 0 192 192">
  <path fill="#fbe4e7" d="M186.7 56.4L135.5 5.3c-3.4-3.4-7.9-5.3-12.7-5.3H69.1c-4.8 0-9.3 1.9-12.7 5.3L5.3 56.5C1.9 59.8 0 64.4 0 69.2v53.7c0 4.8 1.9 9.3 5.3 12.7l51.2 51.1c3.4 3.4 7.9 5.3 12.7 5.3h53.7c4.8 0 9.3-1.9 12.7-5.3l51.1-51.2c3.4-3.4 5.3-7.9 5.3-12.7V69.1c0-4.7-1.9-9.3-5.3-12.7z"/>
  <path fill="#f1647c" d="M117.2 96l24.4-24.4c1.8-1.8 1.8-4.6 0-6.4l-14.8-14.8c-1.8-1.8-4.6-1.8-6.4 0L96 74.8 71.6 50.4c-1.8-1.8-4.6-1.8-6.4 0L50.4 65.2c-1.8 1.8-1.8 4.6 0 6.4L74.8 96l-24.4 24.4c-1.8 1.8-1.8 4.6 0 6.4l14.8 14.8c1.8 1.8 4.6 1.8 6.4 0L96 117.2l24.4 24.4c1.8 1.8 4.6 1.8 6.4 0l14.8-14.8c1.8-1.8 1.8-4.6 0-6.4L117.2 96z"/>
</svg>