<svg xmlns="http://www.w3.org/2000/svg" viewBox="-5 7 500 500">
  <path fill="#ffa26b" d="M395.8 339.9c0 48-40.3 86.2-88.2 82.7-9.9-.7-19.5-4.8-29.3-7.3-2.1-.5-4.7-1.3-6.5-.5-59.8 25.6-139.1-11.2-160.6-80.7-6.7-21.6-10-43.8-10.9-66.2-.4-9.5 2.2-18.8 6.5-27.4 6-12 16.6-17 29.1-19.4 18.8-3.5 37.5-7.4 56.2-10.9 1.6-.3 3.6.1 4.9.9 22 13.6 43.9 13.5 65.8 0 1.3-.8 3.4-1.2 4.9-.9 18.1 3.5 36.1 7.6 54.2 10.7 22.3 3.8 33.5 14.8 36.7 37.6.4 3.1.4 6.4 1.1 9.4.5 2.1 1.6 4.7 3.2 6 21.2 16.4 32.9 40 32.9 66zm-82.8-79c-42.6-1-78.4 35-79.4 77.1-1.1 44.8 35.9 80.7 77.8 81.4 44.2.8 80.4-35.9 80.9-78.3.6-44-36.2-81.3-79.3-80.2z"/>
  <path fill="#ffa26b" d="M229.7 210.8c-32.6 0-58.6-26.4-58.5-59.4 0-32.3 26.5-58.3 59.2-58.3 32.6 0 58.6 26.4 58.5 59.4-.1 32.3-26.5 58.4-59.2 58.3zm114 79.1l14.1 14.1c-23.9 24.3-48.1 48.8-72.1 73.2-4.8-4.9-9.3-9.4-14-14.1 23.7-24.2 47.9-48.7 72-73.2zM364 391v7H262v-7h102zm-94-26.4c4.8 5.2 8.8 9.6 13.2 14.3-6.2 2.2-12.7 4.4-20 6.9 2.3-7.2 4.4-13.6 6.8-21.2zm93-65.8c-.3.3-1.6 1.5-3.2 3.1-4.5-4.9-8.7-9.6-13.2-14.6.5-.6 1.7-1.9 2.9-3.2 4.4 4.8 8.8 9.6 13.5 14.7z"/>
</svg>