<svg xmlns="http://www.w3.org/2000/svg" viewBox="104 -167.4 463.4 463.4">
  <path fill="#667eea" d="M519.4-55.7h16v16h-16zM279.4-39.7h16v16h-16zM247.4-39.7h16v16h-16zM311.4-39.7h16v16h-16z"/>
  <path fill="#667eea" d="M287.4-111.7c-44.2 0-80 35.8-80 80s35.8 80 80 80 80-35.8 80-80-35.9-80-80-80zm0 144c-35.3 0-64-28.7-64-64s28.7-64 64-64 64 28.7 64 64-28.7 64-64 64z"/>
  <path fill="#667eea" d="M559.4-87.7h-112c-4.4 0-8 3.6-8 8v40H399c-4.4-61.6-57.9-108.1-119.5-103.7-55.6 3.9-99.8 48.1-103.7 103.7h-48.4c-4.4 0-8 3.6-8 8v134.1l-13 13c-3.1 3.1-3.1 8.2 0 11.3l13 13v124.6c0 4.4 3.6 8 8 8h432c4.4 0 8-3.6 8-8v-344c0-4.4-3.6-8-8-8zM219.5-99.6c37.5-37.5 98.3-37.5 135.8 0 37.5 37.5 37.5 98.3 0 135.8s-98.3 37.5-135.8 0c-18-18-28.1-42.4-28.1-67.9-.1-25.5 10-49.9 28.1-67.9zm-5.7 152.8l-56.6 56.6-11.3-11.3 56.6-56.6 11.3 11.3zm-78.4-76.9h40.4C177-5.1 183 13 193.1 28.7l-57.7 57.7V-23.7zM123.3 121l11.3-11.3 11.3 11.3-11.3 11.3-11.3-11.3zm428.1 135.3h-416V151.5c1.8-.1 3.6-.9 4.9-2.2L227 62.6C279 96 348.2 80.9 381.5 28.9 391.7 13.1 397.7-5 399-23.7h48.4c4.4 0 8-3.6 8-8v-40h96v328z"/>
  <path fill="#667eea" d="M151.4 224.3h144v16h-144zM151.4 192.3h72v16h-72z"/>
</svg>