<svg xmlns="http://www.w3.org/2000/svg" viewBox="128 -192 512 512">
  <g fill="#667eea">
    <path d="M160 176h32v80h-32v16h32c0 4.4 3.6 8 8 8h64c4.4 0 8-3.6 8-8v-3l59.7 24.8c32.6 13.3 69 13.7 101.8 1.1l123.6-47.1c7.3-2.8 13.2-8.4 16.3-15.6 3.2-7.3 3.4-15.6.5-23s-8.6-13.3-15.9-16.3a29 29 0 00-22.4 0l-51.9 22c.1-1 .2-1.9.3-2.9 0-15.5-12.5-28-28-28h-62.1c-6.3 0-12.5-1.5-18.1-4.3-26-12.9-54.6-19.7-83.6-19.7H272c0-4.4-3.6-8-8-8h-64c-4.4 0-8 3.6-8 8h-32v16zm132.3 0c26.5 0 52.7 6.2 76.4 18 7.8 3.9 16.5 5.9 25.2 6H456c6.6 0 12 5.4 11.9 12.1 0 5.6-3.9 10.4-9.3 11.6-1 .1-2.1.3-3.1.3H360v16h96.5c6.3-.1 12.6-1.4 18.5-3.9l66.9-28.4c3.2-1.4 6.8-1.4 10 0 3.3 1.4 5.9 4.1 7.2 7.5 1.4 3.4 1.3 7.3-.2 10.6-1.4 3.3-4.1 5.8-7.4 7.1L427.8 280c-29 11.1-61.2 10.8-90-1L272 251.6V176h20.3zm-84.3-8h48v96h-48v-96z"/>
    <path d="M224 232h16v16h-16zM400-128H208c-17.7 0-32 14.3-32 32V16c0 17.7 14.3 32 32 32h21.1l45.8 38.2c1.4 1.2 3.3 1.8 5.1 1.8 1.2 0 2.3-.3 3.4-.8 2.8-1.3 4.6-4.1 4.6-7.2V48h48v32c0 17.7 14.3 32 32 32h112v32c0 3.1 1.8 5.9 4.6 7.2 1.1.5 2.2.8 3.4.8 1.9 0 3.7-.7 5.1-1.8l45.8-38.2H560c17.7 0 32-14.3 32-32V-32c0-17.7-14.3-32-32-32H432v-32c0-17.7-14.3-32-32-32zm-64 96v64h-56c-4.4 0-8 3.6-8 8v22.9l-34.9-29.1c-1.4-1.2-3.3-1.8-5.1-1.8h-24c-8.8 0-16-7.2-16-16V-96c0-8.8 7.2-16 16-16h192c8.8 0 16 7.2 16 16v32h-48c-17.7 0-32 14.3-32 32zm240 0V80c0 8.8-7.2 16-16 16h-24c-1.9 0-3.7.7-5.1 1.8L496 126.9V104c0-4.4-3.6-8-8-8H368c-8.8 0-16-7.2-16-16V-32c0-8.8 7.2-16 16-16h192c8.8 0 16 7.2 16 16z"/>
    <path d="M224-96h16v16h-16zM256-96h144v16H256zM208-64h112v16H208zM208-32h112v16H208zM208 0h112v16H208zM384-32h16v16h-16zM416-32h64v16h-64zM368 0h112v16H368zM368 32h112v16H368zM368 64h88v16h-88zM144-96h16V24h-16zM568-96h-64v16h64c22.1 0 40 17.9 40 40v32h16v-32c0-30.9-25.1-56-56-56zM472-96h16v16h-16zM528-16c8.8 0 16 7.2 16 16s-7.2 16-16 16c-4.4 0-8 3.6-8 8v24h16V31c17.1-4.4 27.4-21.9 23-39-4.4-17.1-21.9-27.4-39-23-14.1 3.6-24 16.4-24 31h16c0-8.8 7.2-16 16-16zM520 64h16v16h-16z"/>
  </g>
</svg>