<svg xmlns="http://www.w3.org/2000/svg" viewBox="128 -192 512 512">
  <path fill="#667eea" d="M208-120h16v16h-16v-16zM240-120h16v16h-16v-16zM272-120h16v16h-16v-16zM378.6 108c-.9 2.6-.3 5.6 1.5 7.7l21.2 24.8-2.6 32.6c-.3 4.4 3 8.2 7.4 8.6 1.2.1 2.5-.1 3.7-.6l30.2-12.5 30.2 12.5c1 .4 2 .6 3.1.6 4.4 0 8-3.6 8-8v-.6l-2.6-32.6 21.2-24.8c2.9-3.4 2.5-8.4-.9-11.3-1-.8-2.1-1.4-3.3-1.7l-31.8-7.6-17.1-27.9c-2.6-3.8-7.8-4.7-11.6-2.1-.8.6-1.5 1.3-2.1 2.1L416 95.1l-31.8 7.6c-2.6.7-4.7 2.7-5.6 5.3zm44.5 1.9c2.1-.5 3.8-1.8 5-3.6l12-19.6 12 19.6c1.1 1.8 2.9 3.1 5 3.6l22.3 5.4-14.9 17.4c-1.4 1.6-2 3.7-1.9 5.8l1.8 22.9-21.2-8.8c-2-.8-4.2-.8-6.1 0l-21.2 8.8 1.8-22.9c.2-2.1-.5-4.2-1.9-5.8l-14.9-17.4 22.2-5.4z"/>
  <path fill="#667eea" d="M560-152h-17.5c-3.4-9.6-12.4-16-22.5-16h-24c-10.1 0-19.1 6.4-22.5 16h-66.9c-3.4-9.6-12.4-16-22.5-16h-24c-10.1 0-19.1 6.4-22.5 16H208c-17.7 0-32 14.3-32 32v352c0 17.7 14.3 32 32 32h352c17.7 0 32-14.3 32-32v-352c0-17.7-14.3-32-32-32zm16 32v32h-32v-48h16c8.8 0 16 7.2 16 16zm-88 64v-88c0-4.4 3.6-8 8-8h24c4.4 0 8 3.6 8 8v100.7L484.7 0h-17.4l-16-16 34.3-34.3c1.6-1.5 2.4-3.6 2.4-5.7zM440 48c44.2 0 80 35.8 80 80s-35.8 80-80 80-80-35.8-80-80 35.8-80 80-80zm0-16c-13.8 0-27.5 3-40 8.8V16h80v24.8C467.5 35 453.8 32 440 32zM408-72h64v12.7l-32 32-32-32V-72zm64-16h-64v-48h64v48zm-120-56c0-4.4 3.6-8 8-8h24c4.4 0 8 3.6 8 8v88c0 2.1.8 4.2 2.3 5.7L444.7 0h-49.4L352-43.3V-144zm-144 8h128v48H192v-32c0-8.8 7.2-16 16-16zm352 384H208c-8.8 0-16-7.2-16-16V-72h144v32c0 2.1.8 4.2 2.3 5.7L384 11.3v38.9c-43.1 30.9-52.9 90.9-22 134s90.9 52.9 134 22 52.9-90.9 22-134c-6.1-8.5-13.5-15.9-22-22V11.3l45.7-45.7c1.5-1.5 2.3-3.5 2.3-5.7v-32h32v304c0 8.9-7.2 16.1-16 16.1zM216 280h240v16H216v-16zM472 280h16v16h-16v-16z"/>
  <path fill="#667eea" d="M216-40v80c0 4.4 3.6 8 8 8h96V32h-88v-64h88v-16h-96c-4.4 0-8 3.6-8 8zM216 72h16v16h-16V72zM248 72h72v16h-72V72zM216 104h104v16H216v-16zM216 136h104v16H216v-16zM216 168h104v16H216v-16zM216 208h16v16h-16v-16zM248 208h16v16h-16v-16zM280 208h16v16h-16v-16z"/>
</svg>