<svg xmlns="http://www.w3.org/2000/svg" viewBox="-5 7 500 500">
  <path fill="#be52f2" d="M400.8 340.8c0 56.4-43.8 94.9-93.5 88.2-8.3-1.1-16.2-4.5-24.4-6.7-1.9-.5-4.4-1.2-6-.5-60.1 26.1-140.4-11.8-161.1-81.9-6.3-21.2-9.5-42.8-10.5-64.8-.4-9.7 2.2-19.1 6.7-27.9 6-11.8 16.4-16.7 28.8-19.1 18.9-3.6 37.8-7.4 56.7-11 1.4-.3 3.3.1 4.5.9 22.1 13.7 44.2 13.7 66.3-.1 1.2-.8 3.1-1.1 4.5-.8 18.1 3.5 36.1 7.6 54.2 10.7 22.5 3.9 34 14.5 36.7 37.5 1.1 9.3 4.3 15.5 11.3 21.9 17.5 15.7 25.5 36.4 25.8 53.6zm-82.6-72.9c-42.6-1.1-78.4 34.9-79.5 76.9-1.2 44.9 35.8 80.7 77.6 81.5 44.4.9 80.5-35.9 81.1-78.2.6-44-36.3-81.2-79.2-80.2z"/>
  <path fill="#be52f2" d="M234.8 217.8c-32.6 0-58.7-26.3-58.6-59.3 0-32.3 26.4-58.4 59.1-58.4 32.6 0 58.7 26.3 58.6 59.3-.1 32.4-26.5 58.5-59.1 58.4zM302 332.3c6.2-1.1 12.2-2.9 18.2-3 21-.4 38.7 16.1 39.7 36.3 1.1 22-14.8 40.7-35.9 42.2-21.6 1.6-40.2-13.5-42.6-34.9-1.4-12.8 2.8-23.9 11.9-33.1 1.5-1.5 2.7-4.2 2.8-6.3.3-8.7.1-17.3.1-26 0-10.7 7.5-18.3 18.2-18.3 4.3 0 8.7-.1 13 0 9.8.2 17.3 7.7 17.5 17.5 0 1.8.1 3.7 0 5.5-.1 2 .8 4.6-2.7 4.7s-2.9-2.4-3-4.5c0-1.8 0-3.7-.1-5.5-.4-6.7-5.1-11.6-11.8-11.9-4.7-.2-9.3-.2-14 0-6 .4-11 4.9-11.2 10.8-.4 8.9-.1 17.9-.1 26.5zm30 42.9c-1.1-6.6-2.4-11.7-2.7-16.9-.3-4.6-1.9-6.8-6.6-6.5-1.5.1-3 .1-4.5 0-4.8-.3-6.3 2.1-6.5 6.6-.1 3.7-.9 7.4-2.1 10.9-1.6 4.8-.6 8.9 2.8 12.3 3.3 3.2 7.4 4.4 11.9 2.6 4.9-1.8 7.3-5.4 7.7-9z"/>
</svg>