<svg xmlns="http://www.w3.org/2000/svg" viewBox="0 0 192 192">
  <path fill="#d6ede8" d="M24 36v138c0 9.9 8.1 18 18 18h108c9.9 0 18-8.1 18-18V36H24zm105.5 72H108v42c0 3.3-2.7 6-6 6H90c-3.3 0-6-2.7-6-6v-42H62.5c-5.3 0-8-6.8-4.2-10.8l33.5-35.3c2.2-2.3 5.8-2.5 8.2-.3l.3.3 33.5 35.3c3.7 4 1.1 10.8-4.3 10.8z"/>
  <path fill="#36b989" d="M174 12h-45l-3.5-7c-1.5-3.1-4.6-5-8.1-5H74.6c-3.4 0-6.5 1.9-8 5L63 12H18c-3.3 0-6 2.7-6 6v12c0 3.3 2.7 6 6 6h156c3.3 0 6-2.7 6-6V18c0-3.3-2.7-6-6-6zm-73.8 49.9l-.3-.3c-2.3-2.2-6-2-8.2.3L58.2 97.2c-3.8 4-1.1 10.8 4.2 10.8H84v42c0 3.3 2.7 6 6 6h12c3.3 0 6-2.7 6-6v-42h21.5c5.3 0 8-6.8 4.2-10.8l-33.5-35.3z"/>
</svg>