<svg xmlns="http://www.w3.org/2000/svg" viewBox="-5 7 500 500">
  <path fill="#00c48c" d="M399.8 345.9c0 48-40.2 86.1-88.2 82.7-9.9-.7-19.5-4.8-29.3-7.3-2.1-.5-4.7-1.3-6.5-.5-60 25.8-139.5-11.5-160.7-81.2-6.5-21.5-9.8-43.4-10.8-65.7-.4-9.5 2.2-18.8 6.5-27.4 6.1-12.2 16.8-17.1 29.6-19.4 18.6-3.4 37.1-7.3 55.7-10.8 1.6-.3 3.6.1 4.9.9 22 13.6 43.9 13.6 65.8 0 1.3-.8 3.4-1.2 4.9-.9 18.1 3.5 36.1 7.6 54.2 10.7 22.3 3.8 34 14.7 36.5 37.6 1 9.1 3.9 15.4 11.1 21.5 17.2 14.2 26.3 37 26.3 59.8zm-23.7 52c19.6-19 27-56.1 12.7-85.8-16-33.3-51.3-51.5-88.3-43.7-35.7 7.5-61.6 39.3-62.8 73.3-1.5 41.1 26.3 72.9 59.9 81.3 30 7.5 61.6-4.3 74.2-20.9-2.5 0-4.4-.1-6.8-.1-6.7 0-10-1.2-13.7-4.8-13.2-13.1-26.7-26.1-40-39.1-2.8-2.7-5.2-4.4-9.9-3.5-23.7 4.5-44.6-16.3-39.8-39.3 4-19.4 22.1-31.3 41.1-27 18.6 4.2 29.7 22.7 25 41.8-.8 3.1-.2 4.9 1.9 6.9 13.2 12.7 26 25.9 39.6 38.1 6.2 5.6 7.7 11.1 6.8 18.8-.1.9.3 2.2.1 4zm-82-89c0-6.5-5.4-11.9-11.6-11.7-6 .2-11.4 5.7-11.4 11.7 0 6.3 5.4 11.6 11.9 11.5 6.3-.2 11.1-5.1 11.1-11.5z"/>
  <path fill="#00c48c" d="M233.8 216.8c-32.6 0-58.7-26.3-58.6-59.3 0-32.3 26.4-58.4 59.1-58.4 32.6 0 58.7 26.3 58.6 59.3-.1 32.4-26.5 58.5-59.1 58.4z"/>
</svg>