<svg xmlns="http://www.w3.org/2000/svg" viewBox="0 0 192 192">
  <path fill="#e5e7fa" d="M24 174c0 9.9 8.1 18 18 18h108c9.9 0 18-8.1 18-18V36H24v138zM126 66c0-3.3 2.7-6 6-6s6 2.7 6 6v84c0 3.3-2.7 6-6 6s-6-2.7-6-6V66zm-36 0c0-3.3 2.7-6 6-6s6 2.7 6 6v84c0 3.3-2.7 6-6 6s-6-2.7-6-6V66zm-36 0c0-3.3 2.7-6 6-6s6 2.7 6 6v84c0 3.3-2.7 6-6 6s-6-2.7-6-6V66z"/>
  <path fill="#6979f8" d="M174 12h-45l-3.5-7c-1.5-3.1-4.6-5-8.1-5H74.6c-3.4 0-6.5 1.9-8 5L63 12H18c-3.3 0-6 2.7-6 6v12c0 3.3 2.7 6 6 6h156c3.3 0 6-2.7 6-6V18c0-3.3-2.7-6-6-6zM60 60c-3.3 0-6 2.7-6 6v84c0 3.3 2.7 6 6 6s6-2.7 6-6V66c0-3.3-2.7-6-6-6zm36 0c-3.3 0-6 2.7-6 6v84c0 3.3 2.7 6 6 6s6-2.7 6-6V66c0-3.3-2.7-6-6-6zm36 0c-3.3 0-6 2.7-6 6v84c0 3.3 2.7 6 6 6s6-2.7 6-6V66c0-3.3-2.7-6-6-6z"/>
</svg>