<svg xmlns="http://www.w3.org/2000/svg" viewBox="53 319 282 160">
  <path fill="#9e9e9e" d="M141 333h124v28H141v-28z"/>
  <path fill="#fff" d="M145 337h116v20H145v-20z"/>
  <path fill="#9e9e9e" d="M145 345h116v4H145v-4zm80-8h-44v-13c0-2.8 2.2-5 5-5h34c2.8 0 5 2.2 5 5v13z"/>
  <path fill="#fff" d="M185 333v-9c0-.6.4-1 1-1h34c.6 0 1 .4 1 1v9h-36z"/>
  <path fill="#9e9e9e" d="M151 357h104v104H151V357z"/>
  <path fill="#fff" d="M155 361h96v96h-96v-96z"/>
  <path fill="#9e9e9e" d="M177 447c-4.4 0-8-3.6-8-8v-60c0-4.4 3.6-8 8-8s8 3.6 8 8v60c0 4.4-3.6 8-8 8z"/>
  <path fill="#e5e7fa" d="M177 443c-2.2 0-4-1.8-4-4v-60c0-2.2 1.8-4 4-4s4 1.8 4 4v60c0 2.2-1.8 4-4 4z"/>
  <path fill="#9e9e9e" d="M203 447c-4.4 0-8-3.6-8-8v-60c0-4.4 3.6-8 8-8s8 3.6 8 8v60c0 4.4-3.6 8-8 8z"/>
  <path fill="#e5e7fa" d="M203 443c-2.2 0-4-1.8-4-4v-60c0-2.2 1.8-4 4-4s4 1.8 4 4v60c0 2.2-1.8 4-4 4z"/>
  <path fill="#9e9e9e" d="M229 447c-4.4 0-8-3.6-8-8v-60c0-4.4 3.6-8 8-8s8 3.6 8 8v60c0 4.4-3.6 8-8 8z"/>
  <path fill="#e5e7fa" d="M229 443c-2.2 0-4-1.8-4-4v-60c0-2.2 1.8-4 4-4s4 1.8 4 4v60c0 2.2-1.8 4-4 4z"/>
  <g>
    <path fill="#9e9e9e" d="M271 395h25v4h-25v-4zm20-58h44v4h-44v-4zm-164 52h24v4h-24v-4zm-74 28h56v4H53v-4zm128 58h44v4h-44v-4z"/>
  </g>
  <path fill="#9e9e9e" d="M117 457h150v4H117v-4z"/>
</svg>