<svg xmlns="http://www.w3.org/2000/svg" viewBox="128 -192 512 512">
  <path fill="#667eea" d="M384 176c5.8 0 11.5 2.1 15.9 6l10.6-12c-16.6-14.6-41.8-13-56.5 3.5-14.6 16.6-13 41.8 3.5 56.5 15.1 13.3 37.8 13.3 52.9 0l-10.6-12c-9.9 8.8-25.1 7.8-33.9-2.1-8.8-9.9-7.8-25.1 2.1-33.9 4.5-3.9 10.2-6 16-6z"/>
  <path fill="#667eea" d="M435.9 179l14.8-6c-14.9-36.9-56.9-54.7-93.7-39.7s-54.7 56.9-39.7 93.7 56.9 54.7 93.7 39.7c18.1-7.3 32.4-21.7 39.7-39.7l-14.8-6c-11.6 28.7-44.2 42.5-72.9 30.9s-42.5-44.2-30.9-72.9 44.2-42.5 72.9-30.9a55.81 55.81 0 0130.9 30.9z"/>
  <path fill="#667eea" d="M616 168h-64c-2.1 0-4.2.8-5.7 2.3L524.7 192H384v16h140.7l21.7 21.7c1.5 1.5 3.5 2.3 5.7 2.3h64c4.4 0 8-3.6 8-8v-48c-.1-4.4-3.7-8-8.1-8zm-8 48h-52.7l-16-16 16-16H608v32zM208 104h16v48h-16v-48z"/>
  <path fill="#667eea" d="M592 152V89c0-18.4-12.5-34.4-30.3-38.8L528 41.8v-5.2c10.1-6.9 16.1-18.3 16-30.5V-40c0-26.5-21.5-48-48-48s-48 21.5-48 48v9.8l-32-8v-5.2c10-6.9 16-18.2 16-30.4V-120c0-26.5-21.5-48-48-48s-48 21.5-48 48v46.1c0 12.2 6 23.6 16 30.4v5.2l-32 8V-40c0-26.5-21.5-48-48-48s-48 21.5-48 48V6.1c-.1 12.2 5.9 23.6 16 30.5v5.2l-33.7 8.4C188.5 54.6 176 70.6 176 89v63h16V89c0-11 7.5-20.6 18.2-23.3l39.8-9.9c3.6-.9 6.1-4.1 6.1-7.8V32c0-3.1-1.7-5.8-4.4-7.2C244.4 21.3 240 14 240 6.1V-40c0-17.7 14.3-32 32-32s32 14.3 32 32V6.1c0 7.9-4.4 15.2-11.6 18.7-2.7 1.4-4.5 4.1-4.4 7.2v16c0 3.7 2.5 6.9 6.1 7.8l39.7 9.9c10.4 2.6 17.8 11.8 18.2 22.6l16-.5c-.6-17.9-13-33.2-30.3-37.6L304 41.8v-5.2c10.1-6.9 16.1-18.3 16-30.5v-19.5c.7-.3 1.4-.7 2.2-.9l39.8-9.9c3.6-.9 6.1-4.1 6.1-7.8v-16c0-3-1.7-5.8-4.4-7.2-7.1-3.5-11.6-10.8-11.6-18.7V-120c0-17.7 14.3-32 32-32s32 14.3 32 32v46.1c0 7.9-4.5 15.2-11.6 18.7-2.7 1.4-4.4 4.1-4.4 7.2v16c0 3.7 2.5 6.9 6.1 7.8l39.8 9.9c.7.2 1.5.5 2.2.7V6.1c-.1 12.2 5.9 23.6 16 30.5v5.2l-33.7 8.4c-17.3 4.4-29.7 19.7-30.3 37.6l16 .5c.4-10.7 7.8-19.9 18.2-22.5l39.8-9.9c3.6-.9 6.1-4.1 6.1-7.8V32c0-3.1-1.7-5.8-4.4-7.2C468.4 21.3 464 14 464 6.1V-40c0-17.7 14.3-32 32-32s32 14.3 32 32V6.1c0 7.9-4.4 15.2-11.6 18.7-2.7 1.4-4.5 4.1-4.4 7.2v16c0 3.7 2.5 6.9 6.1 7.8l39.7 9.9C568.5 68.3 576 77.9 576 89v63h16z"/>
  <path fill="#667eea" d="M544 104h16v48h-16v-48zM147.4 206.5l32 22.6c2.8 2 6.5 2 9.2 0l29.9-21.2h61.9c4.4 57.2 54.4 100.1 111.6 95.7 44.3-3.4 81.6-34.6 92.7-77.7l-15.5-4C457 269 409.1 297.3 362 285.1S286.7 225 298.8 178 359 102.6 406 114.8c31 8 55.2 32.2 63.2 63.2l15.5-4c-14.3-55.6-71-89-126.6-74.7-43.1 11.1-74.3 48.4-77.7 92.7h-61.9l-29.9-21.2c-2.8-2-6.5-2-9.2 0l-32 22.6c-3.6 2.6-4.5 7.5-1.9 11.2.5.8 1.1 1.4 1.9 1.9zm36.6-19.3l18.1 12.8-18.1 12.8-18.1-12.8 18.1-12.8z"/>
</svg>