<svg xmlns="http://www.w3.org/2000/svg" viewBox="0 0 512 512">
  <path fill="#e72265" d="M0 0h512v512H0V0z"/>
  <path fill="#fff" d="M201.5 187.8v115.9c-5.5-4.3-12.8-6.8-20.4-6.8-18.7 0-34.1 15.3-34.1 34.1s15.3 34 34 34 34.1-15.3 34.1-34.1V200.2l136.3-24.7v101c-5.5-4.3-12.8-6.8-20.4-6.8-18.7 0-34.1 15.3-34.1 34.1s15.3 34.1 34.1 34.1 34.1-15.3 34.1-34.1V147l-163.6 27.3v13.5zM181 351.4c-11.1 0-20.4-9.4-20.4-20.4 0-11.1 9.4-20.4 20.4-20.4h2.6c.4.4.9.4 1.3.4h.4c.4 0 1.3.4 1.7.4 1.3.4 2.6.9 3.8 1.7h.4c0 .4.4.4.9.9.4 0 .4 0 .9.4 5.1 3.4 8.5 9.8 8.5 16.6 0 11-9.4 20.4-20.5 20.4zm150-27.2c-11.1 0-20.4-9.4-20.4-20.4 0-11.1 9.4-20.4 20.4-20.4h2.6c.4.4.9.4 1.3.4h.4c.4 0 1.3.4 1.7.4 1.3.4 2.6.9 3.8 1.7h.4c0 .4.4.4.9.9.4 0 .4 0 .9.4 5.1 3.4 8.5 9.8 8.5 16.6-.1 11-9.5 20.4-20.5 20.4z"/>
</svg>