<svg xmlns="http://www.w3.org/2000/svg" viewBox="0 0 512 512">
  <path fill="#4faf4c" d="M0 0h512v512H0V0z"/>
  <g fill="#fff">
    <path d="M302 200c0-6.2-1.9-12.4-5.4-17.8-7.2-11.2-11-24.7-11-38.8v-9.8c0-3.1-2.5-5.6-5.6-5.6h-47.9c-3.1 0-5.6 2.5-5.6 5.6v9.8c0 14.2-3.8 27.6-11 38.8-3.5 5.4-5.4 11.6-5.4 17.8 0 9.4 4.1 18.2 11.5 25.2v43.6c0 19 15.4 34.4 34.4 34.4s34.4-15.4 34.4-34.4v-43.6c7.4-7 11.6-15.8 11.6-25.2zm-22.7 68.7c0 12.8-10.4 23.2-23.2 23.2-12.8 0-23.2-10.4-23.2-23.2v-49.6c0-6.3 2.5-12.2 6.8-16.4 1.3 7.9 8.2 14 16.4 14 8.3 0 15.2-6.1 16.4-14 4.4 4.4 6.8 10.2 6.8 16.4v49.6zM250.5 200v-22.2c0-3 2.5-5.5 5.5-5.5s5.5 2.5 5.5 5.5V200c0 3-2.5 5.5-5.5 5.5-2.9 0-5.4-2.5-5.5-5.5zm38.3 8.8c-1.6-5.2-4.5-10.1-8.5-14.1-2.3-2.3-4.9-4.2-7.7-5.8v-11.2c0-9.2-7.5-16.7-16.7-16.7s-16.7 7.5-16.7 16.7v11.2c-7.8 4.3-13.6 11.5-16.2 19.8-1.3-2.8-1.9-5.8-1.9-8.8 0-4.1 1.2-8.1 3.6-11.8 8.4-13 12.8-28.5 12.8-44.9v-4.3h36.7v4.3c0 16.3 4.4 31.8 12.8 44.9 2.4 3.7 3.6 7.7 3.6 11.8.3 3.1-.4 6.1-1.8 8.9z"/>
    <path d="M256 246.3c-8.2 0-14.9 6.7-14.9 14.9v7.5c0 8.2 6.7 14.9 14.9 14.9s14.9-6.7 14.9-14.9v-7.5c.1-8.3-6.6-14.9-14.9-14.9zm3.8 22.4c0 2.1-1.7 3.7-3.7 3.7s-3.7-1.7-3.7-3.7v-7.5c0-2.1 1.7-3.7 3.7-3.7s3.7 1.7 3.7 3.7v7.5zM238.4 317.2H257c3.1 0 5.6-2.5 5.6-5.6S260 306 257 306h-18.6c-3.1 0-5.6 2.5-5.6 5.6s2.4 5.6 5.6 5.6zM273.8 319.4h-18.6c-3.1 0-5.6 2.5-5.6 5.6s2.5 5.6 5.6 5.6h18.6c3.1 0 5.6-2.5 5.6-5.6s-2.5-5.6-5.6-5.6zM238.4 343.9H257c3.1 0 5.6-2.5 5.6-5.6s-2.5-5.6-5.6-5.6h-18.6c-3.1 0-5.6 2.5-5.6 5.6s2.4 5.6 5.6 5.6zM273.8 346.1h-18.6c-3.1 0-5.6 2.5-5.6 5.6s2.5 5.6 5.6 5.6h18.6c3.1 0 5.6-2.5 5.6-5.6s-2.5-5.6-5.6-5.6zM262.5 365c0-3.1-2.5-5.6-5.6-5.6h-18.6c-3.1 0-5.6 2.5-5.6 5.6s2.5 5.6 5.6 5.6H257c3 0 5.5-2.5 5.5-5.6zM273.8 372.8h-18.6c-3.1 0-5.6 2.5-5.6 5.6s2.5 5.6 5.6 5.6h18.6c3.1 0 5.6-2.5 5.6-5.6s-2.5-5.6-5.6-5.6z"/>
  </g>
</svg>