<svg xmlns="http://www.w3.org/2000/svg" viewBox="0 0 512 512">
  <path fill="#17bcd3" d="M0 0h512v512H0V0z"/>
  <path fill="#fff" d="M305.9 128H177.1c-8.7 0-15.7 7-15.7 15.7v224.6c0 8.7 7 15.7 15.7 15.7h157.8c8.7 0 15.7-7 15.7-15.7V176.5L305.9 128zm3.7 23.5l19.6 21.3h-19.6v-21.3zm27.8 216.8c0 1.4-1.1 2.5-2.5 2.5H177.1c-1.4 0-2.5-1.1-2.5-2.5V143.7c0-1.4 1.1-2.5 2.5-2.5h119.4v38.2c0 3.6 3 6.6 6.6 6.6h34.4v182.3h-.1zM197.8 198.1h111.9c2.7 0 4.9 2.2 4.9 4.9s-2.2 4.9-4.9 4.9H197.8c-2.7 0-4.9-2.2-4.9-4.9s2.2-4.9 4.9-4.9zm116.9 38.1c0 2.7-2.2 4.9-4.9 4.9h-112c-2.7 0-4.9-2.2-4.9-4.9s2.2-4.9 4.9-4.9h111.9c2.8 0 5 2.2 5 4.9zm0 32.1c0 2.7-2.2 4.9-4.9 4.9h-112c-2.7 0-4.9-2.2-4.9-4.9s2.2-4.9 4.9-4.9h111.9c2.8 0 5 2.2 5 4.9zm0 32.7c0 2.7-2.2 4.9-4.9 4.9h-112c-2.7 0-4.9-2.2-4.9-4.9s2.2-4.9 4.9-4.9h111.9c2.8 0 5 2.2 5 4.9z"/>
</svg>