<svg xmlns="http://www.w3.org/2000/svg" viewBox="0 0 512 512">
  <path fill="#4656a6" d="M0 0h512v512H0z"/>
  <path fill="#fff" d="M364.5 128h-217c-10.5 0-19.5 9-19.5 19.5v217c0 10.5 9 19.5 19.5 19.5h217c10.5 0 19.5-9 19.5-19.5v-217c0-10.5-9-19.5-19.5-19.5zm3.5 236.5c0 2-1.5 3.5-3.5 3.5h-217c-2 0-3.5-1.5-3.5-3.5v-6l64-64 32 32 64-64 64 64v38zm0-60.5l-64-64-64 64-32-32-64 64V144h224v160zm-160-64c17.5 0 32-14.5 32-32s-14.5-32-32-32-32 14.5-32 32 14.5 32 32 32zm0-48c9 0 16 7 16 16s-7 16-16 16-16-7-16-16 7-16 16-16z"/>
</svg>