<svg xmlns="http://www.w3.org/2000/svg" viewBox="0 0 512 512">
  <path fill="#904199" d="M0 0h512v512H0z"/>
  <g fill="#fff">
    <path d="M289.3 252.3l-48.6-30.9c-1.4-.9-3.1-.9-4.5-.1s-2.3 2.3-2.3 3.9V287c0 1.6.9 3.1 2.3 3.9.7.4 1.4.5 2.1.5.8 0 1.7-.2 2.4-.7l48.6-30.9c1.3-.8 2-2.2 2-3.7 0-1.7-.8-3-2-3.8zm-46.5 26.5v-45.7l35.9 22.9-35.9 22.8z"/>
    <path d="M379.5 154.4h-247c-2.4 0-4.4 2-4.4 4.4V353.1c0 2.4 2 4.4 4.4 4.4h247.1c2.4 0 4.4-2 4.4-4.4V158.7c0-2.3-2-4.3-4.5-4.3zm-207.4 97.2h-35.3v-39.7h35.3v39.7zm-35.3 8.7h35.3V300h-35.3v-39.7zm44.1 44.2V163.2h150v185.4h-150v-44.1zm194.3-52.9h-35.3v-39.7h35.3v39.7zm-35.4 8.7h35.3V300h-35.3v-39.7zm35.4-97V203h-35.3v-39.7h35.3zm-238.4 0h35.3V203h-35.3v-39.7zm0 185.4V309h35.3v39.7h-35.3zm238.4 0h-35.3V309h35.3v39.7z"/>
  </g>
</svg>