<svg xmlns="http://www.w3.org/2000/svg" viewBox="0 0 460 320">
  <path fill="#8dc63f" d="M321.3 10.9h-180c-33 0-60 27-60 60v180c0 33 27 60 60 60h180c33 0 60-27 60-60v-180c0-33-27-60-60-60z"/>
  <path fill="#527a38" d="M320 307.7c33 0 60-27 60-60v-91.9h-.5c.2-.1.4-.3.5-.4V154c-.7-.2-1.6-.4-2.7-.5 1.1-.8 1.7-1.3 1.7-1.3s-1.6-.8-3.9-.9c1.1-.8 1.7-1.3 1.7-1.3s-1.6-.8-3.9-.9c1.1-.8 1.7-1.3 1.7-1.3s-1.6-.8-3.9-.9c1.1-.8 1.7-1.3 1.7-1.3s-1.6-.8-3.9-.9c1.1-.8 1.7-1.3 1.7-1.3s-1.6-.8-3.9-.9c1.1-.8 1.7-1.3 1.7-1.3s-1.6-.8-3.9-.9c1.1-.8 1.7-1.3 1.7-1.3s-1.6-.8-3.9-.9c1.1-.8 1.7-1.3 1.7-1.3s-1.6-.8-3.9-.9c1.1-.8 1.7-1.3 1.7-1.3s-1.6-.8-3.9-.9c1.1-.8 1.7-1.3 1.7-1.3s-1.6-.8-3.9-.9c1.1-.8 1.7-1.3 1.7-1.3s-1.6-.8-3.9-.9c1.1-.8 1.7-1.3 1.7-1.3s-1.6-.8-3.9-.9c1.1-.8 1.7-1.3 1.7-1.3s-1.6-.8-3.9-.9c1.1-.8 1.7-1.3 1.7-1.3s-1.6-.8-3.9-.9c1.1-.8 1.7-1.3 1.7-1.3s-1.6-.8-3.9-.9c1.1-.8 1.7-1.3 1.7-1.3s-1.6-.8-3.9-.9c1.1-.8 1.7-1.3 1.7-1.3s-1.6-.8-3.9-.9c1.1-.8 1.7-1.3 1.7-1.3s-1.6-.8-3.9-.9c1.1-.8 1.7-1.3 1.7-1.3s-1.6-.8-3.9-.9c1.1-.8 1.7-1.3 1.7-1.3s-1.6-.8-3.9-.9c1.1-.8 1.7-1.3 1.7-1.3s-1.6-.8-3.9-.9c1.1-.8 1.7-1.3 1.7-1.3s-1.6-.8-3.9-.9c1.1-.8 1.7-1.3 1.7-1.3s-1.6-.8-3.9-.9c1.1-.8 1.7-1.3 1.7-1.3s-1.6-.8-3.9-.9c1.1-.8 1.7-1.3 1.7-1.3s-1.6-.8-3.9-.9c1.1-.8 1.7-1.3 1.7-1.3s-1.6-.8-3.9-.9c1.1-.8 1.7-1.3 1.7-1.3s-1.6-.8-3.9-.9c1.1-.8 1.7-1.3 1.7-1.3s-1.6-.8-3.9-.9c1.1-.8 1.7-1.3 1.7-1.3s-1.6-.8-3.9-.9c1.1-.8 1.7-1.3 1.7-1.3s-1.6-.8-3.9-.9c1.1-.8 1.7-1.3 1.7-1.3s-8.2-3.9-14 4.6c-.7 1.1-1.1 2.2-1.6 3.4-.7-1.1-1.8-1.9-3.1-1.9-1.6 0-3 1.1-3.5 2.7-.2-.1-.4-.3-.7-.3-.4-1-1.2-1.8-2.1-2.1-.4-1-1.2-1.8-2.1-2.1-.4-1-1.2-1.8-2.1-2.1-.4-1-1.2-1.8-2.1-2.1-.4-1-1.2-1.8-2.1-2.1-.4-1-1.2-1.8-2.1-2.1-.4-1-1.2-1.8-2.1-2.1-.4-1-1.2-1.8-2.1-2.1-.4-1-1.2-1.8-2.1-2.1-.4-1-1.2-1.8-2.1-2.1-.6-1.4-1.9-2.4-3.4-2.4-2 0-3.6 1.8-3.8 4-.3-.5-.7-.9-1.1-1.4v.5h-.1v-.5l-.3.3c-.5-.9-1.1-1.7-1.8-2.5v.5h1.4v-.5l-.3.3c-.5-.9-1.1-1.7-1.8-2.5v.5h-.1v-.5l-.3.3c-.5-.9-1.1-1.7-1.8-2.5v.5h-.1v-.5l-.3.3c-.5-.9-1.1-1.7-1.8-2.5v.5h-.1v-.5l-.3.3c-.5-.9-1.1-1.7-1.8-2.5v.5h-.1v-.5l-.3.3c-.5-.9-1.1-1.7-1.8-2.5v.5h-.1v-.5l-.3.3c-.5-.9-1.1-1.7-1.8-2.5v.5h-.1v-.5l-.3.3c-.5-.9-1.1-1.7-1.8-2.5v.5h.3v-.5l-.3.3c-.5-.9-1.1-1.7-1.8-2.5v.5h-.1v-.5l-.3.3c-.5-.9-1.1-1.7-1.8-2.5v.5h-.1v-.5l-.3.3c-.5-.9-1.1-1.7-1.8-2.5v.5h-.1v-.5l-.3.3c-.5-.9-1.1-1.7-1.8-2.5v.5h-.1v-.5l-.3.3c-.5-.9-1.1-1.7-1.8-2.5v.5h-.1v-.5l-.3.3c-.5-.9-1.1-1.7-1.8-2.5v.5h-.1v-.5l-.3.3c-.5-.9-1.1-1.7-1.8-2.5v.5h.3v-.5c-5.2 5.6-4.5 13.8-3.6 18.4-1.4.5-2.4 1.7-2.4 3.1 0 1.4 1 2.6 2.3 3.1.3 1 1.1 1.8 2.1 2.1 0 .1 0 .2.1.3-2.5 8-7.9 20-17.9 18.7-.4-.5-.9-.9-1.5-1.1-.4-1-1.2-1.8-2.1-2.1-.4-1-1.2-1.8-2.1-2.1-.4-1-1.2-1.8-2.1-2.1-.4-1-1.2-1.8-2.1-2.1-.4-1-1.2-1.8-2.1-2.1-.4-1-1.2-1.8-2.1-2.1-.6-1.4-1.9-2.4-3.4-2.4-2.1 0-3.8 2-3.8 4.4 0 1.9 1.1 3.5 2.6 4.1.4 1 1.2 1.8 2.1 2.1.2.6.6 1 1 1.4.6 9.5-5.8 21.7-17.6 21.3-.4-.4-.8-.7-1.4-.9-.4-1-1.2-1.8-2.1-2.1-.4-1-1.2-1.8-2.1-2.1-.4-1-1.2-1.8-2.1-2.1-.4-1-1.2-1.8-2.1-2.1-.6-1.4-1.9-2.4-3.4-2.4-.8 0-1.5.3-2.1.7-.4-.4-.9-.8-1.3-1.2-.7-.9-1.4-1.6-2.2-2.2-5.7-7-13.1-3.5-13.1-3.5s1 .7 2.6 2c-.3.1-.5.2-.5.2s1 .7 2.6 2c-.3.1-.5.2-.5.2s1 .7 2.6 2c-.3.1-.5.2-.5.2s1 .7 2.6 2c-.3.1-.5.2-.5.2s1 .7 2.6 2c-.3.1-.5.2-.5.2s1 .7 2.6 2c-.3.1-.5.2-.5.2s1 .7 2.5 1.9l.1.1c-.3.1-.4.2-.4.2l1.2.9c3.7 5.3 6.4 11.3 5.5 17.3h2.3c0 .7 0 1.4-.1 2.1h2.3v.4c-2.6.5-4.6 2.6-4.6 5.2 0 1.9 1.1 3.5 2.8 4.5.5.9 1.2 1.6 2.1 2.1.3.5.6 1 1.1 1.4h-7.7v16.6h2.1v2.1h2.1v2.1h2.1v2.1h2.1v2.1h2.1v2.1h2.1v1.4h-2.4v19.9h2.1v2.1h2.1v2.1h1.5l-.6 1.6H179v-.4h-2.1v-2.1H175v-2.1h-2.1v-2.1h-2.1v-2.1h-2.1v-2.1h-2.1v-2.1h-2.1V174h-2.1v-2.1H160v-2.1h-2.1v-2.1h-2.1v-2.1h-51.9v19.9h2.1v2.1h2.1v2.1h2.1v2.1h2.1v2.1h2.1v2.1h1.6l.5 1.2v1h.4l31.9 74.1h1.2l.9 2.1h1.2l.9 2.1h1.2l.9 2.1h1.2l.9 2.1h1.2l.9 2.1h1.2l.9 2.1h1.2l.9 2.1h1.2l.9 2.1h1.2l.9 2.1h1.2l.9 2.1h1.2l.9 2.1h1.2l.9 2.1h1.2l.9 2.1h1.2l.9 2.1h1.2l.9 2.1h1.2l.9 2.1h1.2l.5 1.1H320z" opacity=".3"/>
  <g fill="#fff">
    <path d="M162.9 237.3c.3-4.3 2.3-11.8 5.1-19.4l12.8-33.3h-7.5v-19.9h40.1v19.9h-6.9l-33.9 87h-26l-37.4-87h-7.8v-19.9h51.9v19.9h-7.6l12 34.2c2.3 7.5 4.1 14.2 4.4 18.5h.8zM262.3 164.7v20.2h-8.7v66.3h8.7v20.3h-46.8v-20.3h8.9v-66.3h-8.9v-20.2h46.8zM315.1 164.7c32.7 0 38.9 15.3 38.9 32.7 0 20.2-16.9 30.3-37.1 30.3h-10.7v23.7h8.6v20.2h-45.4v-20.2h7.9v-66.6h-7.9v-20h45.7zm-8.9 46.5h6.3c8.2 0 13.8-4.6 13.8-12.7 0-9-4.9-13.9-13.1-13.9h-7.1v26.6z"/>
    <g>
      <path d="M162.8 136.1h129.8v16.6H162.8zM298.5 91.9c-.7 1.1-1.1 2.2-1.6 3.4-.7-1.1-1.8-1.9-3.1-1.9-2.1 0-3.8 2-3.8 4.4 0 1.6.8 3 2 3.8-21.1 12.5-31.9-9.1-28.5-21.2.4.2.9.3 1.3.3 2.1 0 3.8-2 3.8-4.4 0-2.4-1.7-4.4-3.8-4.4-2.1 0-3.8 2-3.8 4.4 0 1 .3 1.9.8 2.6-.5.4-1 .9-1.3 1.2C239.8 101 231 77 228.4 66.8c.5.3 1.1.5 1.8.5 2 0 3.6-1.5 3.6-3.3 0-1.5-1-2.7-2.4-3.1.9-4.6 1.6-12.8-3.6-18.4v.5h-.1v-.5c-5.2 5.6-4.5 13.8-3.6 18.4-1.4.5-2.4 1.7-2.4 3.1 0 1.8 1.6 3.3 3.6 3.3.6 0 1.2-.2 1.7-.5-2.7 10.3-11.5 33.9-32 13.2-.4-.4-.8-.8-1.3-1.2.5-.7.8-1.7.8-2.6 0-2.4-1.7-4.4-3.8-4.4-2.1 0-3.8 2-3.8 4.4 0 2.4 1.7 4.4 3.8 4.4.5 0 .9-.1 1.3-.3 3.4 12-7.3 33.7-28.5 21.2 1.2-.7 2-2.2 2-3.8 0-2.4-1.7-4.4-3.8-4.4-1.3 0-2.4.7-3.1 1.9-.4-1.2-.9-2.4-1.6-3.4-5.7-8.5-14-4.6-14-4.6s24.1 16.7 21.7 33.2l62.9.8v.2l63.1-.8c-2.4-16.5 21.7-33.2 21.7-33.2s-8.1-4-13.9 4.5zm-70.9-38.3v-.3.3zM176.1 128.1c0-2.9-2.6-5.3-5.8-5.3-3.2 0-5.8 2.4-5.8 5.3s2.6 5.3 5.8 5.3c3.2-.1 5.8-2.4 5.8-5.3zM192.5 128.1c0-2.9-2.6-5.3-5.8-5.3-3.2 0-5.8 2.4-5.8 5.3s2.6 5.3 5.8 5.3c3.2-.1 5.8-2.4 5.8-5.3zM208.9 128.1c0-2.9-2.6-5.3-5.8-5.3-3.2 0-5.8 2.4-5.8 5.3s2.6 5.3 5.8 5.3c3.2 0 5.8-2.4 5.8-5.3zM225.3 128.1c0-2.9-2.6-5.3-5.8-5.3-3.2 0-5.8 2.4-5.8 5.3s2.6 5.3 5.8 5.3c3.2 0 5.8-2.4 5.8-5.3zM241.7 128.1c0-2.9-2.6-5.3-5.8-5.3-3.2 0-5.8 2.4-5.8 5.3s2.6 5.3 5.8 5.3c3.3 0 5.8-2.4 5.8-5.3zM258.1 128.1c0-2.9-2.6-5.3-5.8-5.3-3.2 0-5.8 2.4-5.8 5.3s2.6 5.3 5.8 5.3c3.3 0 5.8-2.4 5.8-5.3zM274.6 128.1c0-2.9-2.6-5.3-5.8-5.3-3.2 0-5.8 2.4-5.8 5.3s2.6 5.3 5.8 5.3c3.2 0 5.8-2.4 5.8-5.3zM291 128.1c0-2.9-2.6-5.3-5.8-5.3-3.2 0-5.8 2.4-5.8 5.3s2.6 5.3 5.8 5.3c3.2 0 5.8-2.4 5.8-5.3z"/>
    </g>
  </g>
</svg>